<svg xmlns="http://www.w3.org/2000/svg" viewBox="0 0 320 320"><defs><style>.cls-1{fill:#FFF;}.cls-2{fill:#101820;}.cls-3{fill:#fff;}.cls-4{fill:#111c24;}.cls-5{fill:#3d7edb;}.cls-6{fill:#a4aeb5;}</style></defs><g id="Background"><circle class="cls-1" cx="160" cy="160" r="160"/></g><g id="Ebene_1" data-name="Ebene 1"><g id="Data_Science" data-name="Data Science"><path class="cls-2" d="M170,70.28a3,3,0,0,1-3-3V49.14a3,3,0,1,1,6,0V67.28A3,3,0,0,1,170,70.28Z"/><path class="cls-2" d="M170,269.86a3,3,0,0,1-3-3V248.72a3,3,0,0,1,6,0v18.14A3,3,0,0,1,170,269.86Z"/><path class="cls-2" d="M206.45,249a3,3,0,0,1-2.77-1.86L202,243a3,3,0,1,1,5.54-2.29l1.73,4.19a3,3,0,0,1-1.62,3.92A3.06,3.06,0,0,1,206.45,249Z"/><path class="cls-2" d="M247,238a3,3,0,0,1-2.12-.88L232,224.27a3,3,0,0,1,4.24-4.24l12.83,12.83A3,3,0,0,1,247,238Z"/><path class="cls-2" d="M258,197.45a2.87,2.87,0,0,1-1.14-.23l-4.19-1.73A3,3,0,1,1,255,190l4.19,1.73a3,3,0,0,1-1.15,5.77Z"/><path class="cls-2" d="M204.72,77.19a3.06,3.06,0,0,1-1.15-.23A3,3,0,0,1,202,73l1.73-4.19a3,3,0,1,1,5.54,2.29l-1.73,4.19A3,3,0,0,1,204.72,77.19Z"/><path class="cls-3" d="M170,78v33.65a46.24,46.24,0,0,1,25.78,8.21l19-28.16A79.68,79.68,0,0,0,170,78Z"/><path class="cls-4" d="M195.78,121.32a1.52,1.52,0,0,1-.85-.26,44.65,44.65,0,0,0-25-8,1.49,1.49,0,0,1-1.48-1.5V78a1.5,1.5,0,0,1,1.5-1.5,81.16,81.16,0,0,1,45.64,14,1.49,1.49,0,0,1,.4,2.08l-19,28.16a1.49,1.49,0,0,1-1,.64A1.32,1.32,0,0,1,195.78,121.32ZM171.5,110.16a47.54,47.54,0,0,1,23.87,7.59l17.34-25.67A78.13,78.13,0,0,0,171.5,79.47Z"/><path class="cls-3" d="M170,204.39V238a80,80,0,0,0,80-80H215.82A46.4,46.4,0,0,1,170,204.39Z"/><path class="cls-4" d="M170,239.54a1.5,1.5,0,0,1-1.5-1.5V204.39a1.49,1.49,0,0,1,1.48-1.5A45.07,45.07,0,0,0,214.32,158a1.5,1.5,0,0,1,1.5-1.5H250a1.5,1.5,0,0,1,1.5,1.5A81.63,81.63,0,0,1,170,239.54Zm1.5-33.7v30.69a78.65,78.65,0,0,0,77-77H217.3A48.08,48.08,0,0,1,171.5,205.84Z"/><path class="cls-3" d="M228.39,84.83l-19,28.16a46.33,46.33,0,0,1,20,38.18h34.22A80,80,0,0,0,228.39,84.83Z"/><path class="cls-4" d="M263.63,152.67H229.41a1.5,1.5,0,0,1-1.5-1.5,44.92,44.92,0,0,0-19.39-36.94,1.51,1.51,0,0,1-.39-2.08l19-28.16a1.45,1.45,0,0,1,.95-.63,1.51,1.51,0,0,1,1.13.23,81.51,81.51,0,0,1,35.9,67.58A1.5,1.5,0,0,1,263.63,152.67Zm-32.74-3h31.23a78.53,78.53,0,0,0-33.34-62.74l-17.35,25.69A48,48,0,0,1,230.89,149.67Z"/><path class="cls-5" d="M216,146a3,3,0,0,1-2.12-.88,3,3,0,0,1,0-4.24l51-51a3,3,0,0,1,4.24,4.24l-51,51A3,3,0,0,1,216,146Z"/><path class="cls-5" d="M172.16,167.88a3,3,0,0,1-2.12-5.12l21.84-21.88a3,3,0,0,1,4.24,4.24L174.28,167A3,3,0,0,1,172.16,167.88Z"/><path class="cls-5" d="M216,146H195a3,3,0,0,1,0-6h21a3,3,0,0,1,0,6Z"/><path class="cls-5" d="M268,105.2a3,3,0,0,1-3-2.73l-.71-7.88-7.88-.71a3,3,0,0,1,.54-6l10.37.94a3,3,0,0,1,2.72,2.72l.94,10.37a3,3,0,0,1-2.72,3.26Z"/><path class="cls-2" d="M85,154.5H43a1.5,1.5,0,0,1,0-3H85a1.5,1.5,0,0,1,0,3Z"/><path class="cls-2" d="M92,96.5H61a1.5,1.5,0,0,1,0-3H92a1.5,1.5,0,0,1,0,3Z"/><circle class="cls-3" cx="56" cy="95" r="5"/><path class="cls-2" d="M56,101.5A6.5,6.5,0,1,1,62.5,95,6.51,6.51,0,0,1,56,101.5Zm0-10A3.5,3.5,0,1,0,59.5,95,3.5,3.5,0,0,0,56,91.5Z"/><path class="cls-2" d="M102,78.5H85a1.5,1.5,0,0,1,0-3h17a1.5,1.5,0,0,1,0,3Z"/><line class="cls-6" x1="92" y1="95" x2="102" y2="105"/><path class="cls-2" d="M102,106.5a1.51,1.51,0,0,1-1.06-.44l-10-10a1.5,1.5,0,0,1,2.12-2.12l10,10a1.49,1.49,0,0,1,0,2.12A1.51,1.51,0,0,1,102,106.5Z"/><line class="cls-6" x1="102" y1="77" x2="113.5" y2="88.5"/><path class="cls-2" d="M113.5,90a1.51,1.51,0,0,1-1.06-.44l-11.5-11.5a1.5,1.5,0,0,1,2.12-2.12l11.5,11.5a1.49,1.49,0,0,1,0,2.12A1.51,1.51,0,0,1,113.5,90Z"/><circle class="cls-3" cx="80" cy="77" r="5"/><path class="cls-2" d="M80,83.5h0a6.5,6.5,0,0,1-4.59-11.1A6.41,6.41,0,0,1,80,70.5h0a6.5,6.5,0,0,1,4.59,11.1A6.41,6.41,0,0,1,80,83.5Zm0-10A3.5,3.5,0,0,0,76.5,77,3.5,3.5,0,0,0,80,80.5h0A3.5,3.5,0,0,0,83.5,77h0A3.5,3.5,0,0,0,80,73.5Z"/><path class="cls-2" d="M94,222.5H59a1.5,1.5,0,0,1,0-3H94a1.5,1.5,0,0,1,0,3Z"/><circle class="cls-3" cx="54" cy="221" r="5"/><path class="cls-2" d="M54,227.5a6.5,6.5,0,1,1,6.5-6.5A6.51,6.51,0,0,1,54,227.5Zm0-10a3.5,3.5,0,1,0,3.5,3.5A3.5,3.5,0,0,0,54,217.5Z"/><path class="cls-2" d="M104,240.5H87a1.5,1.5,0,0,1,0-3h17a1.5,1.5,0,0,1,0,3Z"/><path class="cls-2" d="M94,222.5a1.51,1.51,0,0,1-1.06-.44,1.49,1.49,0,0,1,0-2.12l9-9a1.5,1.5,0,0,1,2.12,2.12l-9,9A1.51,1.51,0,0,1,94,222.5Z"/><path class="cls-2" d="M104,240.5a1.51,1.51,0,0,1-1.06-.44,1.49,1.49,0,0,1,0-2.12l11-11a1.5,1.5,0,0,1,2.12,2.12l-11,11A1.51,1.51,0,0,1,104,240.5Z"/><circle class="cls-3" cx="82" cy="239" r="5"/><path class="cls-2" d="M82,245.5a6.5,6.5,0,0,1-6.5-6.5,6.51,6.51,0,0,1,6.5-6.5h0a6.5,6.5,0,0,1,6.5,6.5,6.51,6.51,0,0,1-6.5,6.5Zm0-10h0a3.5,3.5,0,1,0,0,7h0a3.5,3.5,0,1,0,0-7Z"/><circle class="cls-3" cx="38" cy="153" r="5"/><path class="cls-2" d="M38,159.5a6.5,6.5,0,1,1,6.5-6.5A6.51,6.51,0,0,1,38,159.5Zm0-10a3.5,3.5,0,1,0,3.5,3.5A3.5,3.5,0,0,0,38,149.5Z"/><path class="cls-2" d="M97,172.5H65a1.5,1.5,0,0,1,0-3H97a1.5,1.5,0,0,1,0,3Z"/><circle class="cls-3" cx="60" cy="171" r="5"/><path class="cls-2" d="M60,177.5a6.5,6.5,0,1,1,6.5-6.5A6.51,6.51,0,0,1,60,177.5Zm0-10a3.5,3.5,0,1,0,3.5,3.5A3.5,3.5,0,0,0,60,167.5Z"/><path class="cls-5" d="M86.17,162.89a19.11,19.11,0,0,1,6.67-21.84,19.09,19.09,0,0,1,10.33-28.68,19.17,19.17,0,0,1-1.07-6.28,18.88,18.88,0,0,1,18.76-19,18.65,18.65,0,0,1,3.61.36,18.6,18.6,0,0,1,35.43,8.39V227.61c0,9.28-10.46,11.47-15.54,11.54-7.84.1-15.74-4.4-18.79-10.77a18.75,18.75,0,0,1-3.62.36,19,19,0,0,1-18.83-19.1,19.3,19.3,0,0,1,1.07-6.31,19.21,19.21,0,0,1-10.36-28.85A31.44,31.44,0,0,1,86.17,162.89Z"/><path class="cls-4" d="M114.64,120a15.76,15.76,0,0,1-7.25-1.83,12.27,12.27,0,0,1-6.71-10.22,1.5,1.5,0,0,1,3-.22,9.25,9.25,0,0,0,5.13,7.79c3.29,1.75,7.16,1.76,8.49,1a1.5,1.5,0,1,1,1.5,2.6A8.7,8.7,0,0,1,114.64,120Z"/><path class="cls-2" d="M124,174.12a18.21,18.21,0,0,1-4.21-.52,1.5,1.5,0,0,1,.7-2.92c6.77,1.62,11.4-1.21,13.75-8.41a1.5,1.5,0,0,1,2.86.93C134.73,170.36,130.15,174.12,124,174.12Z"/><path class="cls-4" d="M125.57,229.88a1.5,1.5,0,0,1-.51-2.91,6.48,6.48,0,0,0,3-3.41,1.5,1.5,0,0,1,2-.73,1.52,1.52,0,0,1,.73,2c-1.81,3.88-4.41,4.87-4.7,5A1.67,1.67,0,0,1,125.57,229.88Z"/><path class="cls-4" d="M99.45,144.74a10.86,10.86,0,0,1-8.9-4.65,1.5,1.5,0,0,1,2.53-1.62,7.9,7.9,0,0,0,8.71,3,1.49,1.49,0,0,1,1.84,1.06,1.52,1.52,0,0,1-1.07,1.84A12.1,12.1,0,0,1,99.45,144.74Z"/><path class="cls-4" d="M104.19,204.82a1.4,1.4,0,0,1-.49-.08,1.5,1.5,0,0,1-.93-1.9c1.16-3.39,5.47-9.63,13.48-9a1.5,1.5,0,1,1-.25,3c-7.65-.64-10.28,6.64-10.39,6.95A1.51,1.51,0,0,1,104.19,204.82Z"/><path class="cls-4" d="M133.23,96.87a1.5,1.5,0,0,1-1.47-1.21c-1-4.77-7.63-6.75-7.7-6.77A1.49,1.49,0,0,1,123,87a1.51,1.51,0,0,1,1.85-1c.35.1,8.5,2.48,9.82,9.06a1.5,1.5,0,0,1-1.18,1.77A1.43,1.43,0,0,1,133.23,96.87Z"/><path class="cls-2" d="M142.29,144.65a9.49,9.49,0,0,1-4.35-1.09,1.5,1.5,0,1,1,1.36-2.67,6.64,6.64,0,0,0,8.59-2.27,6.34,6.34,0,0,0-.7-8.57,1.5,1.5,0,0,1,2.1-2.15,9.34,9.34,0,0,1,1,12.47A10.14,10.14,0,0,1,142.29,144.65Z"/><path class="cls-2" d="M120.59,150.27c-6.62,0-9.4-3.74-10.51-6.16-2.07-4.51-1.15-10.65,2-13.42a1.5,1.5,0,0,1,2,2.26c-1.9,1.67-2.87,6.37-1.24,9.91s5.1,4.94,10.17,4.24a1.5,1.5,0,0,1,.41,3A20.14,20.14,0,0,1,120.59,150.27Z"/><path class="cls-2" d="M143.4,209.51h-.08a1.51,1.51,0,0,1-1.42-1.58c.08-1.29-1.55-3.79-4.37-4.94-1.74-.71-5.16-1.33-8.53,2.52a1.5,1.5,0,1,1-2.26-2c3.36-3.84,7.7-5,11.92-3.33,3.67,1.5,6.41,5,6.24,7.89A1.5,1.5,0,0,1,143.4,209.51Z"/><path class="cls-2" d="M130.91,115c-3.23,0-6.26-2.13-9-6.33a1.5,1.5,0,0,1,2.52-1.63c2.17,3.33,4.38,5,6.55,5,3.61-.06,6.41-4.68,6.44-4.72a1.5,1.5,0,0,1,2.58,1.53c-.15.25-3.67,6.08-8.95,6.19Z"/><path class="cls-2" d="M155,189.13a10.66,10.66,0,0,1-5.46-1.38,11.21,11.21,0,0,1-5.21-7.77,1.5,1.5,0,1,1,2.94-.59,8.49,8.49,0,0,0,3.77,5.77c2.17,1.26,5,1.31,8.45.16a1.49,1.49,0,0,1,1.9,1,1.51,1.51,0,0,1-.94,1.9A17.4,17.4,0,0,1,155,189.13Z"/><path class="cls-2" d="M160,144.07a1.51,1.51,0,0,1-.41-.06l-10.9-3.07a1.5,1.5,0,0,1,.82-2.89l10.9,3.08a1.5,1.5,0,0,1-.41,2.94Z"/><path class="cls-4" d="M93.83,176a1.5,1.5,0,0,1-1.27-2.3,15.1,15.1,0,0,1,14.66-6.47,1.5,1.5,0,1,1-.43,3,12.09,12.09,0,0,0-11.7,5.11A1.5,1.5,0,0,1,93.83,176Z"/><path class="cls-4" d="M159.9,115.14a3,3,0,0,1-3-3V103a3,3,0,0,1,6,0v9.11A3,3,0,0,1,159.9,115.14Z"/><path class="cls-4" d="M144.09,242.15c-8.17,0-16.09-4.2-20.13-10.51a19.32,19.32,0,0,1-2,.1,22.1,22.1,0,0,1-21.37-26.58A22.22,22.22,0,0,1,90.1,175a33.06,33.06,0,0,1-6.78-11.11A22.11,22.11,0,0,1,89,140.36a22.12,22.12,0,0,1,10.55-29.83,22.15,22.15,0,0,1-.45-4.44,21.91,21.91,0,0,1,21.76-22,18.57,18.57,0,0,1,2,.1,21.53,21.53,0,0,1,18.51-10.44c11.64,0,21.16,9.51,21.55,21.35a2.44,2.44,0,0,1,0,.27V103a3,3,0,0,1-6,0V95.84a15.84,15.84,0,0,0-15.56-16.09,15.65,15.65,0,0,0-14.17,9,3,3,0,0,1-3.28,1.65,15.74,15.74,0,0,0-3-.31,15.9,15.9,0,0,0-15.76,16,16.21,16.21,0,0,0,.9,5.3,3,3,0,0,1-2,3.85,16.1,16.1,0,0,0-8.68,24.17,3,3,0,0,1-.73,4.06A16.12,16.12,0,0,0,89,161.88a28.62,28.62,0,0,0,6.87,10.39,3,3,0,0,1,.48,3.85,16.21,16.21,0,0,0,8.71,24.33,3,3,0,0,1,2,3.85,16.2,16.2,0,0,0-.91,5.34A16,16,0,0,0,122,225.74a15.8,15.8,0,0,0,3-.3,3,3,0,0,1,3.29,1.64c2.57,5.34,9.3,9.16,16,9.07.52,0,12.6-.26,12.58-8.53V112.14a3,3,0,0,1,6,0V227.61c0,9.82-9.57,14.42-18.5,14.54Z"/></g></g></svg>